<?xml version="1.0" encoding="UTF-8" standalone="no"?>
<!DOCTYPE svg PUBLIC "-//W3C//DTD SVG 1.1//EN" "http://www.w3.org/Graphics/SVG/1.1/DTD/svg11.dtd">
<!-- Generated by Microsoft Visio, SVG Export guidance-nva-ha.svg PIP-UDR switch - complete -->
<svg xmlns="http://www.w3.org/2000/svg" xmlns:xlink="http://www.w3.org/1999/xlink" xmlns:ev="http://www.w3.org/2001/xml-events"
		xmlns:v="http://schemas.microsoft.com/visio/2003/SVGExtensions/" width="17in" height="21.5in" viewBox="0 0 1224 1548"
		xml:space="preserve" color-interpolation-filters="sRGB" class="st31">
	<v:documentProperties v:langID="1033" v:viewMarkup="false">
		<v:userDefs>
			<v:ud v:nameU="msvNoAutoConnect" v:val="VT0(1):26"/>
		</v:userDefs>
	</v:documentProperties>

	<style type="text/css">
	<![CDATA[
		.st1 {fill:#d8d8d8;stroke:none;stroke-linecap:round;stroke-linejoin:round;stroke-width:0.24}
		.st2 {fill:none;stroke:#0078d7;stroke-dasharray:0,3.3;stroke-linecap:round;stroke-linejoin:round;stroke-width:1.1}
		.st3 {fill:#0078d7;stroke:none;stroke-linecap:butt;stroke-width:0.653846}
		.st4 {fill:#0078d7;font-family:Segoe UI;font-size:1.5em}
		.st5 {font-size:1em}
		.st6 {fill:#f2f2f2;stroke:#000000;stroke-dasharray:0,6.75;stroke-linecap:round;stroke-linejoin:round;stroke-width:2.25}
		.st7 {fill:#000000;fill-opacity:1;stroke:#000000;stroke-opacity:1;stroke-width:0.47169811320755}
		.st8 {fill:#000000;font-family:Segoe UI;font-size:1.5em}
		.st9 {fill:none;stroke:#0000ff;stroke-dasharray:5.25,3.75;stroke-linecap:round;stroke-linejoin:round;stroke-width:0.75}
		.st10 {fill:#0070c0;stroke:none;stroke-linecap:butt;stroke-width:0.75}
		.st11 {fill:#0078d7;stroke:none;stroke-linecap:butt;stroke-width:0.75}
		.st12 {marker-end:url(#mrkr4-77);stroke:#0070c0;stroke-linecap:butt;stroke-width:2.5}
		.st13 {fill:#0070c0;fill-opacity:1;stroke:#0070c0;stroke-opacity:1;stroke-width:0.49800796812749}
		.st14 {fill:#0078d7;stroke:none;stroke-linecap:butt;stroke-width:0.6375}
		.st15 {fill:#0078d7;stroke:none;stroke-linecap:round;stroke-linejoin:round;stroke-width:0.75}
		.st16 {fill:#ffffff;font-family:Segoe UI;font-size:1.5em}
		.st17 {fill:#ffffff;stroke:#0078d7;stroke-linecap:round;stroke-linejoin:round;stroke-width:0.75}
		.st18 {stroke:#9dbb61;stroke-linecap:butt;stroke-width:5}
		.st19 {fill:#ffffff;stroke:none;stroke-linecap:butt;stroke-width:7.2}
		.st20 {stroke:#f59d56;stroke-linecap:butt;stroke-width:5}
		.st21 {marker-end:url(#mrkr4-136);stroke:#f59d56;stroke-linecap:butt;stroke-width:5}
		.st22 {fill:#f59d56;fill-opacity:1;stroke:#f59d56;stroke-opacity:1;stroke-width:0.66489361702128}
		.st23 {marker-end:url(#mrkr4-142);stroke:#9dbb61;stroke-linecap:butt;stroke-width:5}
		.st24 {fill:#9dbb61;fill-opacity:1;stroke:#9dbb61;stroke-opacity:1;stroke-width:0.66489361702128}
		.st25 {stroke:#0070c0;stroke-linecap:butt;stroke-width:2.5}
		.st26 {marker-end:url(#mrkr4-176);stroke:#c05046;stroke-linecap:butt;stroke-width:5}
		.st27 {fill:#c05046;fill-opacity:1;stroke:#c05046;stroke-opacity:1;stroke-width:0.66489361702128}
		.st28 {stroke:#c05046;stroke-linecap:butt;stroke-width:5}
		.st29 {fill:#00188f;stroke:none;stroke-linecap:butt;stroke-width:0.75}
		.st30 {fill:#00188f;font-family:Segoe UI;font-size:1.5em}
		.st31 {fill:none;fill-rule:evenodd;font-size:12px;overflow:visible;stroke-linecap:square;stroke-miterlimit:3}
	]]>
	</style>

	<defs id="Markers">
		<g id="lend13">
			<path d="M 3 1 L 0 0 L 3 -1 L 3 1 " style="stroke:none"/>
		</g>
		<marker id="mrkr13-16" class="st7" v:arrowType="13" v:arrowSize="2" v:setback="6.36" refX="6.36" orient="auto"
				markerUnits="strokeWidth" overflow="visible">
			<use xlink:href="#lend13" transform="scale(2.12) "/>
		</marker>
		<marker id="mrkr13-18" class="st7" v:arrowType="13" v:arrowSize="2" v:setback="6.36" refX="-6.36" orient="auto"
				markerUnits="strokeWidth" overflow="visible">
			<use xlink:href="#lend13" transform="scale(-2.12,-2.12) "/>
		</marker>
		<g id="lend4">
			<path d="M 2 1 L 0 0 L 2 -1 L 2 1 " style="stroke:none"/>
		</g>
		<marker id="mrkr4-77" class="st13" v:arrowType="4" v:arrowSize="2" v:setback="4.016" refX="-4.016" orient="auto"
				markerUnits="strokeWidth" overflow="visible">
			<use xlink:href="#lend4" transform="scale(-2.008,-2.008) "/>
		</marker>
		<marker id="mrkr4-136" class="st22" v:arrowType="4" v:arrowSize="2" v:setback="3.008" refX="-3.008" orient="auto"
				markerUnits="strokeWidth" overflow="visible">
			<use xlink:href="#lend4" transform="scale(-1.504,-1.504) "/>
		</marker>
		<marker id="mrkr4-142" class="st24" v:arrowType="4" v:arrowSize="2" v:setback="3.008" refX="-3.008" orient="auto"
				markerUnits="strokeWidth" overflow="visible">
			<use xlink:href="#lend4" transform="scale(-1.504,-1.504) "/>
		</marker>
		<marker id="mrkr4-176" class="st27" v:arrowType="4" v:arrowSize="2" v:setback="3.008" refX="-3.008" orient="auto"
				markerUnits="strokeWidth" overflow="visible">
			<use xlink:href="#lend4" transform="scale(-1.504,-1.504) "/>
		</marker>
	</defs>
	<g v:mID="15" v:index="8" v:groupContext="foregroundPage">
		<title>PIP-UDR switch - complete</title>
		<v:pageProperties v:drawingScale="1" v:pageScale="1" v:drawingUnits="19" v:shadowOffsetX="9" v:shadowOffsetY="-9"/>
		<v:layer v:name="000-All" v:index="0"/>
		<g id="shape1000-1" v:mID="1000" v:groupContext="shape" v:layerMember="0" transform="translate(36.0001,-846)">
			<title>Rectangle.49</title>
			<v:userDefs>
				<v:ud v:nameU="visVersion" v:val="VT0(15):26"/>
			</v:userDefs>
			<rect x="0" y="882" width="895.5" height="666" class="st1"/>
		</g>
		<g id="shape1001-3" v:mID="1001" v:groupContext="shape" v:layerMember="0" transform="translate(54.0001,-868.5)">
			<title>Virtual Network Box</title>
			<path d="M0 1548 L855 1548 L855 972 L0 972 L0 1548 Z" class="st2"/>
		</g>
		<g id="group1002-5" transform="translate(56.0643,-1456.5)" v:mID="1002" v:groupContext="group" v:layerMember="0">
			<title>Microsoft Azure</title>
			<desc>Azure Vnet 10.0.0.0/16</desc>
			<g id="shape1003-6" v:mID="1003" v:groupContext="shape" v:layerMember="0" transform="translate(-3.67706E-13,-11.1719)">
				<title>Sheet.1003</title>
				<path d="M44.3 1538.45 C42.35 1538.45 40.73 1539.62 39.95 1541.31 L12.21 1541.31 C7.53 1541.31 3.7 1537.54 3.7 1532.8
							 C3.7 1528.12 7.47 1524.29 12.21 1524.29 L12.28 1524.29 L12.34 1524.29 L16.17 1524.29 C16.37 1523.32
							 16.63 1522.34 17.02 1521.5 C17.15 1521.17 17.34 1520.85 17.54 1520.53 C19.49 1517.15 23.12 1514.87 27.35
							 1514.87 C31.05 1514.87 34.36 1516.69 36.44 1519.49 C37.61 1518.97 38.84 1518.51 40.14 1518.25 C37.48
							 1513.96 32.74 1511.17 27.35 1511.17 C21.04 1511.17 15.59 1515.07 13.38 1520.59 C13.38 1520.59 13.38
							 1520.65 13.38 1520.65 C13.38 1520.65 13.38 1520.59 13.38 1520.59 L12.28 1520.59 C5.52 1520.59 -0 1526.05
							 0 1532.87 C0 1539.69 5.46 1545.14 12.28 1545.14 L40.01 1545.14 C40.73 1546.83 42.41 1548 44.36 1548
							 C46.96 1548 49.1 1545.92 49.1 1543.26 C49.1 1540.6 46.9 1538.45 44.3 1538.45 Z" class="st3"/>
			</g>
			<g id="shape1004-8" v:mID="1004" v:groupContext="shape" v:layerMember="0" transform="translate(15.9134,2.27374E-13)">
				<title>Sheet.1004</title>
				<path d="M43.58 1517.93 C40.79 1512.34 35.01 1508.44 28.38 1508.44 C20.27 1508.44 13.51 1514.09 11.82 1521.69 C7.86
							 1522.08 4.48 1524.16 2.27 1527.28 L22.47 1527.28 C23.84 1525.53 25.98 1524.42 28.38 1524.42 C32.54 1524.42
							 35.92 1527.8 35.92 1531.96 C35.92 1536.11 32.54 1539.49 28.38 1539.49 C25.98 1539.49 23.9 1538.39 22.47
							 1536.63 L0 1536.63 C0.91 1543.06 6.43 1548 13.06 1548 C13.06 1548 13.12 1548 13.12 1548 L43.39 1548
							 C43.39 1548 43.45 1548 43.45 1548 C51.77 1548 58.52 1541.24 58.52 1532.93 C58.52 1524.68 51.83 1517.99
							 43.58 1517.93 Z" class="st3"/>
			</g>
			<g id="shape1002-10" v:mID="1002" v:groupContext="groupContent" v:layerMember="0">
				<v:textBlock v:margins="rect(0,0,0,0)" v:verticalAlign="0"/>
				<v:textRect cx="143.482" cy="1527" width="127.04" height="51.6088"/>
				<text x="79.96" y="1517.4" class="st4" v:langID="1033"><v:paragraph/><v:tabList/>Azure Vnet<v:newlineChar/><tspan
							x="79.96" dy="1.2em" class="st5">10.0.0.0/16</tspan></text>			</g>
		</g>
		<g id="shape1009-13" v:mID="1009" v:groupContext="shape" v:layerMember="0" transform="translate(76.5,-1062)">
			<title>Sheet.1009</title>
			<desc>DMZ - external 10.0.0.64/27</desc>
			<v:textBlock v:margins="rect(4,4,4,4)" v:verticalAlign="0"/>
			<v:textRect cx="67.5443" cy="1200" width="135.09" height="48"/>
			<path d="M0 1548 L135.09 1548 L135.09 1224 L0 1224 L0 1548 Z" class="st6"/>
			<text x="4" y="1196.2" class="st8" v:langID="1033"><v:paragraph/><v:tabList/>DMZ - external<v:newlineChar/><tspan x="4"
						dy="1.2em" class="st5">10.0.0.64/27</tspan></text>		</g>
		<g id="shape1145-21" v:mID="1145" v:groupContext="shape" v:layerMember="0" transform="translate(218.463,-1134)">
			<title>Availability set.1145</title>
			<desc>Availability set</desc>
			<v:textBlock v:margins="rect(4,4,4,4)" v:verticalAlign="0"/>
			<v:textRect cx="51.5367" cy="1426.8" width="103.08" height="242.409"/>
			<path d="M0 1548 L103.07 1548 L103.07 1305.59 L0 1305.59 L0 1548 Z" class="st9"/>
			<text x="8.67" y="1325.79" class="st4" v:langID="1033"><v:paragraph v:horizAlign="1"/><v:tabList/>Availability <tspan
						x="39.96" dy="1.2em" class="st5">set</tspan></text>		</g>
		<g id="group1011-25" transform="translate(224.337,-1142.1)" v:mID="1011" v:groupContext="group" v:layerMember="0">
			<title>Computer.1061</title>
			<desc>Active NVA</desc>
			<g id="shape1012-26" v:mID="1012" v:groupContext="shape" v:layerMember="0" transform="translate(13.2949,-4.54747E-13)">
				<title>Sheet.1012</title>
				<path d="M41.07 1530 L39.01 1530 L18.64 1530 L17.58 1530 C20.41 1540.79 16.61 1542.34 0 1542.34 L0 1548 L21.13 1548
							 L36.55 1548 L56.49 1548 L56.49 1542.34 C39.87 1542.34 38.24 1540.8 41.07 1530 Z" class="st10"/>
			</g>
			<g id="shape1013-28" v:mID="1013" v:groupContext="shape" v:layerMember="0" transform="translate(0,-17.9984)">
				<title>Sheet.1013</title>
				<path d="M81.18 1479.6 L4.69 1479.6 C2.09 1479.6 0 1482.12 0 1484.93 L0 1542.71 C0 1545.51 2.09 1548 4.69 1548 L81.18
							 1548 C83.77 1548 86.4 1545.51 86.4 1542.71 L86.4 1484.93 C86.4 1482.11 83.77 1479.6 81.18 1479.6 ZM79.76
							 1486.8 L79.76 1540.8 L6.65 1540.8 L6.65 1486.8 L79.96 1486.68 L79.76 1486.8 Z" class="st10"/>
			</g>
			<g id="shape1011-30" v:mID="1011" v:groupContext="groupContent" v:layerMember="0">
				<v:textBlock v:margins="rect(0,0,0,0)"/>
				<v:textRect cx="43.2" cy="1497.6" width="86.4" height="72"/>
				<text x="18.99" y="1492.2" class="st8" v:langID="1033"><v:paragraph v:horizAlign="1"/><v:tabList/>Active<v:newlineChar/><tspan
							x="25.07" dy="1.2em" class="st5">NVA</tspan></text>			</g>
		</g>
		<g id="group1068-33" transform="translate(224.337,-1233)" v:mID="1068" v:groupContext="group" v:layerMember="0">
			<title>Computer.1068</title>
			<desc>Passive NVA</desc>
			<g id="shape1069-34" v:mID="1069" v:groupContext="shape" v:layerMember="0" transform="translate(13.2949,-4.54747E-13)">
				<title>Sheet.1069</title>
				<path d="M41.07 1530 L39.01 1530 L18.64 1530 L17.58 1530 C20.41 1540.79 16.61 1542.34 0 1542.34 L0 1548 L21.13 1548
							 L36.55 1548 L56.49 1548 L56.49 1542.34 C39.87 1542.34 38.24 1540.8 41.07 1530 Z" class="st10"/>
			</g>
			<g id="shape1070-36" v:mID="1070" v:groupContext="shape" v:layerMember="0" transform="translate(0,-17.9984)">
				<title>Sheet.1070</title>
				<path d="M81.18 1479.6 L4.69 1479.6 C2.09 1479.6 0 1482.12 0 1484.93 L0 1542.71 C0 1545.51 2.09 1548 4.69 1548 L81.18
							 1548 C83.77 1548 86.4 1545.51 86.4 1542.71 L86.4 1484.93 C86.4 1482.11 83.77 1479.6 81.18 1479.6 ZM79.76
							 1486.8 L79.76 1540.8 L6.65 1540.8 L6.65 1486.8 L79.96 1486.68 L79.76 1486.8 Z" class="st10"/>
			</g>
			<g id="shape1068-38" v:mID="1068" v:groupContext="groupContent" v:layerMember="0">
				<v:textBlock v:margins="rect(0,0,0,0)"/>
				<v:textRect cx="43.2" cy="1497.6" width="86.4" height="72"/>
				<text x="14.75" y="1492.2" class="st8" v:langID="1033"><v:paragraph v:horizAlign="1"/><v:tabList/>Passive<v:newlineChar/><tspan
							x="25.07" dy="1.2em" class="st5">NVA</tspan></text>			</g>
		</g>
		<g id="shape1040-41" v:mID="1040" v:groupContext="shape" v:layerMember="0" transform="translate(670.5,-1062)">
			<title>Sheet.1040</title>
			<desc>Web tier 10.0.1.0/24</desc>
			<v:textBlock v:margins="rect(4,4,4,4)" v:verticalAlign="0"/>
			<v:textRect cx="108" cy="1200" width="216" height="48"/>
			<path d="M0 1548 L216 1548 L216 1224 L0 1224 L0 1548 Z" class="st6"/>
			<text x="4" y="1196.2" class="st8" v:langID="1033"><v:paragraph/><v:tabList/>Web tier<v:newlineChar/><tspan x="4"
						dy="1.2em" class="st5">10.0.1.0/24</tspan></text>		</g>
		<g id="shape1041-47" v:mID="1041" v:groupContext="shape" v:layerMember="0" transform="translate(771.963,-1071.59)">
			<title>Availability set.117</title>
			<desc>Availability set</desc>
			<v:textBlock v:margins="rect(4,4,4,4)" v:verticalAlign="0"/>
			<v:textRect cx="51.5367" cy="1395.59" width="103.08" height="304.819"/>
			<path d="M0 1548 L103.07 1548 L103.07 1243.18 L0 1243.18 L0 1548 Z" class="st9"/>
			<text x="8.67" y="1263.38" class="st4" v:langID="1033"><v:paragraph v:horizAlign="1"/><v:tabList/>Availability <tspan
						x="39.96" dy="1.2em" class="st5">set</tspan></text>		</g>
		<g id="group1042-51" transform="translate(684,-1161)" v:mID="1042" v:groupContext="group" v:layerMember="0">
			<title>Azure load balancer.1089</title>
			<g id="group1043-52" transform="translate(1.24615,-1.10769)" v:mID="1043" v:groupContext="group" v:layerMember="0">
				<title>Sheet.1043</title>
				<g id="shape1044-53" v:mID="1044" v:groupContext="shape" v:layerMember="0">
					<title>Sheet.1044</title>
					<path d="M67.57 1508.68 L39.32 1480.43 C38.08 1479.18 36.55 1478.49 34.75 1478.49 C33.09 1478.49 31.43 1479.18
								 30.18 1480.43 L1.94 1508.68 C0.69 1509.92 0 1511.45 0 1513.25 C0 1514.91 0.69 1516.57 1.94 1517.82
								 L30.18 1546.06 C31.43 1547.31 32.95 1548 34.75 1548 C36.42 1548 38.08 1547.31 39.32 1546.06 L67.57
								 1517.82 C68.82 1516.57 69.51 1515.05 69.51 1513.25 C69.37 1511.45 68.68 1509.78 67.57 1508.68 ZM54.14
								 1521.83 L54.14 1515.46 L44.45 1515.46 C43.48 1518.78 40.85 1521.42 37.52 1522.38 L37.52 1528.89
								 C38.91 1529.86 40.98 1532.08 40.98 1534.43 C40.98 1537.89 38.22 1540.66 34.75 1540.66 C31.29 1540.66
								 28.52 1537.89 28.52 1534.43 C28.52 1531.94 30.6 1529.86 31.98 1528.89 L31.98 1522.52 C28.66 1521.55
								 26.03 1518.92 25.06 1515.6 L15.37 1515.6 L15.37 1522.11 L6.23 1512.97 L15.37 1503.83 L15.37 1510.2
								 L25.06 1510.2 C26.03 1506.88 28.66 1504.25 31.98 1503.28 L31.98 1494 L25.62 1494 L34.75 1484.86
								 L43.89 1494 L37.52 1494 L37.52 1503.28 C40.85 1504.25 43.48 1506.88 44.45 1510.2 L54.14 1510.2 L54.14
								 1503.69 L63.28 1512.83 L54.14 1521.83 Z" class="st3"/>
				</g>
				<g id="shape1045-55" v:mID="1045" v:groupContext="shape" v:layerMember="0" transform="translate(27.4154,-27.9692)">
					<title>Sheet.1045</title>
					<path d="M7.34 1533.32 C3.32 1533.32 0 1536.65 0 1540.66 C-0 1544.68 3.32 1548 7.34 1548 C11.35 1548 14.68 1544.68
								 14.68 1540.66 C14.68 1536.65 11.35 1533.32 7.34 1533.32 Z" class="st3"/>
				</g>
			</g>
		</g>
		<g id="group1046-57" transform="translate(780.3,-1161)" v:mID="1046" v:groupContext="group" v:layerMember="0">
			<title>Virtual machine (opaque).125</title>
			<g id="shape1047-58" v:mID="1047" v:groupContext="shape" v:layerMember="0" transform="translate(28.287,-32.3232)">
				<title>Sheet.1047</title>
				<path d="M0 1548 L32.63 1548 L32.63 1525.22 L0 1525.22 L0 1548 ZM23.5 1541.35 L17.36 1545.04 L17.36 1537.69 L23.5
							 1534 L23.5 1541.35 ZM16.8 1529.26 L22.94 1532.97 L16.84 1536.64 L10.68 1532.95 L16.8 1529.26 ZM10.09
							 1533.96 L16.23 1537.64 L16.23 1545.04 L10.09 1541.35 L10.09 1533.96 Z" class="st11"/>
			</g>
			<g id="shape1048-60" v:mID="1048" v:groupContext="shape" v:layerMember="0">
				<title>Sheet.1048</title>
				<path d="M82.59 1476 L3.81 1476 C1.72 1476 0 1477.79 0 1479.97 L0 1544.03 C0 1546.23 1.72 1548 3.81 1548 L82.59 1548
							 C84.7 1548 86.4 1546.23 86.4 1544.03 L86.4 1479.97 C86.4 1477.79 84.7 1476 82.59 1476 ZM42.92 1535.61
							 L40.51 1543.05 C40.49 1543.12 40.47 1543.18 40.43 1543.23 C40.4 1543.27 40.34 1543.31 40.27 1543.33
							 C40.2 1543.35 40.09 1543.37 39.97 1543.37 C39.84 1543.38 39.67 1543.39 39.46 1543.39 C39.3 1543.39 39.16
							 1543.38 39.04 1543.38 C38.92 1543.38 38.82 1543.37 38.73 1543.36 C38.65 1543.36 38.58 1543.34 38.53
							 1543.33 C38.48 1543.31 38.44 1543.29 38.4 1543.26 C38.36 1543.24 38.34 1543.2 38.32 1543.17 C38.3 1543.13
							 38.28 1543.09 38.27 1543.03 L35.87 1535.59 C35.82 1535.44 35.79 1535.31 35.78 1535.22 C35.77 1535.13
							 35.79 1535.06 35.84 1535.02 C35.89 1534.97 35.98 1534.94 36.1 1534.93 C36.23 1534.92 36.4 1534.92 36.63
							 1534.92 C36.82 1534.92 36.97 1534.92 37.08 1534.93 C37.18 1534.94 37.27 1534.95 37.32 1534.97 C37.38
							 1535 37.42 1535.03 37.45 1535.07 C37.47 1535.12 37.49 1535.17 37.51 1535.23 L39.47 1541.7 L39.48 1541.7
							 L41.4 1535.27 C41.42 1535.19 41.44 1535.13 41.46 1535.09 C41.49 1535.04 41.53 1535.01 41.59 1534.98
							 C41.65 1534.96 41.73 1534.94 41.85 1534.93 C41.96 1534.92 42.11 1534.92 42.31 1534.92 C42.5 1534.92
							 42.65 1534.92 42.75 1534.94 C42.86 1534.95 42.93 1534.98 42.97 1535.03 C43.01 1535.08 43.02 1535.15
							 43.01 1535.24 C43 1535.33 42.97 1535.45 42.92 1535.61 ZM53.43 1543.11 C53.43 1543.16 53.42 1543.2 53.39
							 1543.23 C53.37 1543.27 53.33 1543.29 53.27 1543.31 C53.21 1543.34 53.13 1543.35 53.03 1543.37 C52.93
							 1543.38 52.81 1543.39 52.65 1543.39 C52.5 1543.39 52.38 1543.38 52.28 1543.37 C52.18 1543.35 52.1 1543.34
							 52.04 1543.31 C51.98 1543.29 51.94 1543.27 51.92 1543.23 C51.89 1543.19 51.88 1543.16 51.88 1543.11
							 L51.88 1536.29 L51.87 1536.29 L49.53 1543.11 C49.52 1543.16 49.49 1543.21 49.45 1543.25 C49.41 1543.29
							 49.36 1543.31 49.3 1543.34 C49.23 1543.36 49.15 1543.37 49.05 1543.38 C48.95 1543.38 48.83 1543.39 48.69
							 1543.39 C48.55 1543.39 48.43 1543.38 48.33 1543.37 C48.23 1543.36 48.15 1543.34 48.08 1543.32 C48.02
							 1543.29 47.97 1543.27 47.93 1543.23 C47.89 1543.19 47.87 1543.16 47.85 1543.11 L45.6 1536.29 L45.59
							 1536.29 L45.59 1543.11 C45.59 1543.16 45.58 1543.2 45.56 1543.23 C45.53 1543.27 45.49 1543.29 45.43
							 1543.31 C45.37 1543.34 45.29 1543.35 45.19 1543.37 C45.09 1543.38 44.97 1543.39 44.81 1543.39 C44.66
							 1543.39 44.54 1543.38 44.44 1543.37 C44.34 1543.35 44.26 1543.34 44.2 1543.31 C44.14 1543.29 44.1 1543.27
							 44.07 1543.23 C44.05 1543.19 44.04 1543.16 44.04 1543.11 L44.04 1535.64 C44.04 1535.42 44.09 1535.25
							 44.2 1535.13 C44.32 1535.02 44.47 1534.96 44.65 1534.96 L45.72 1534.96 C45.91 1534.96 46.08 1534.97
							 46.22 1535.01 C46.35 1535.04 46.47 1535.09 46.57 1535.17 C46.67 1535.25 46.75 1535.34 46.82 1535.47
							 C46.89 1535.59 46.95 1535.74 46.99 1535.92 L48.74 1540.92 L48.76 1540.92 L50.57 1535.94 C50.62 1535.76
							 50.68 1535.6 50.74 1535.48 C50.81 1535.35 50.88 1535.25 50.97 1535.17 C51.05 1535.09 51.15 1535.04 51.27
							 1535.01 C51.39 1534.98 51.52 1534.96 51.68 1534.96 L52.78 1534.96 C52.89 1534.96 52.99 1534.97 53.07
							 1535 C53.15 1535.03 53.21 1535.08 53.27 1535.14 C53.32 1535.19 53.36 1535.26 53.38 1535.35 C53.41 1535.44
							 53.42 1535.53 53.42 1535.64 L53.42 1543.11 L53.43 1543.11 ZM63.58 1516.29 C63.58 1517.49 62.66 1518.45
							 61.51 1518.45 L49.65 1518.45 C48.49 1523.28 49.04 1523.87 57.06 1523.87 L57.06 1525.86 L47.72 1525.86
							 L40.91 1525.86 L32.15 1525.86 L32.15 1523.87 C39.35 1523.87 40.54 1523.28 39.41 1518.45 L27.7 1518.45
							 C26.55 1518.45 25.63 1517.49 25.63 1516.29 L25.63 1492.29 C25.63 1491.09 26.55 1490.11 27.7 1490.11
							 L61.51 1490.11 C62.66 1490.11 63.58 1491.09 63.58 1492.29 L63.58 1516.29 L63.58 1516.29 Z"
						class="st11"/>
			</g>
		</g>
		<g id="group1049-62" transform="translate(780.3,-1242)" v:mID="1049" v:groupContext="group" v:layerMember="0">
			<title>Virtual machine (opaque).1096</title>
			<g id="shape1050-63" v:mID="1050" v:groupContext="shape" v:layerMember="0" transform="translate(28.287,-32.3232)">
				<title>Sheet.1050</title>
				<path d="M0 1548 L32.63 1548 L32.63 1525.22 L0 1525.22 L0 1548 ZM23.5 1541.35 L17.36 1545.04 L17.36 1537.69 L23.5
							 1534 L23.5 1541.35 ZM16.8 1529.26 L22.94 1532.97 L16.84 1536.64 L10.68 1532.95 L16.8 1529.26 ZM10.09
							 1533.96 L16.23 1537.64 L16.23 1545.04 L10.09 1541.35 L10.09 1533.96 Z" class="st11"/>
			</g>
			<g id="shape1051-65" v:mID="1051" v:groupContext="shape" v:layerMember="0">
				<title>Sheet.1051</title>
				<path d="M82.59 1476 L3.81 1476 C1.72 1476 0 1477.79 0 1479.97 L0 1544.03 C0 1546.23 1.72 1548 3.81 1548 L82.59 1548
							 C84.7 1548 86.4 1546.23 86.4 1544.03 L86.4 1479.97 C86.4 1477.79 84.7 1476 82.59 1476 ZM42.92 1535.61
							 L40.51 1543.05 C40.49 1543.12 40.47 1543.18 40.43 1543.23 C40.4 1543.27 40.34 1543.31 40.27 1543.33
							 C40.2 1543.35 40.09 1543.37 39.97 1543.37 C39.84 1543.38 39.67 1543.39 39.46 1543.39 C39.3 1543.39 39.16
							 1543.38 39.04 1543.38 C38.92 1543.38 38.82 1543.37 38.73 1543.36 C38.65 1543.36 38.58 1543.34 38.53
							 1543.33 C38.48 1543.31 38.44 1543.29 38.4 1543.26 C38.36 1543.24 38.34 1543.2 38.32 1543.17 C38.3 1543.13
							 38.28 1543.09 38.27 1543.03 L35.87 1535.59 C35.82 1535.44 35.79 1535.31 35.78 1535.22 C35.77 1535.13
							 35.79 1535.06 35.84 1535.02 C35.89 1534.97 35.98 1534.94 36.1 1534.93 C36.23 1534.92 36.4 1534.92 36.63
							 1534.92 C36.82 1534.92 36.97 1534.92 37.08 1534.93 C37.18 1534.94 37.27 1534.95 37.32 1534.97 C37.38
							 1535 37.42 1535.03 37.45 1535.07 C37.47 1535.12 37.49 1535.17 37.51 1535.23 L39.47 1541.7 L39.48 1541.7
							 L41.4 1535.27 C41.42 1535.19 41.44 1535.13 41.46 1535.09 C41.49 1535.04 41.53 1535.01 41.59 1534.98
							 C41.65 1534.96 41.73 1534.94 41.85 1534.93 C41.96 1534.92 42.11 1534.92 42.31 1534.92 C42.5 1534.92
							 42.65 1534.92 42.75 1534.94 C42.86 1534.95 42.93 1534.98 42.97 1535.03 C43.01 1535.08 43.02 1535.15
							 43.01 1535.24 C43 1535.33 42.97 1535.45 42.92 1535.61 ZM53.43 1543.11 C53.43 1543.16 53.42 1543.2 53.39
							 1543.23 C53.37 1543.27 53.33 1543.29 53.27 1543.31 C53.21 1543.34 53.13 1543.35 53.03 1543.37 C52.93
							 1543.38 52.81 1543.39 52.65 1543.39 C52.5 1543.39 52.38 1543.38 52.28 1543.37 C52.18 1543.35 52.1 1543.34
							 52.04 1543.31 C51.98 1543.29 51.94 1543.27 51.92 1543.23 C51.89 1543.19 51.88 1543.16 51.88 1543.11
							 L51.88 1536.29 L51.87 1536.29 L49.53 1543.11 C49.52 1543.16 49.49 1543.21 49.45 1543.25 C49.41 1543.29
							 49.36 1543.31 49.3 1543.34 C49.23 1543.36 49.15 1543.37 49.05 1543.38 C48.95 1543.38 48.83 1543.39 48.69
							 1543.39 C48.55 1543.39 48.43 1543.38 48.33 1543.37 C48.23 1543.36 48.15 1543.34 48.08 1543.32 C48.02
							 1543.29 47.97 1543.27 47.93 1543.23 C47.89 1543.19 47.87 1543.16 47.85 1543.11 L45.6 1536.29 L45.59
							 1536.29 L45.59 1543.11 C45.59 1543.16 45.58 1543.2 45.56 1543.23 C45.53 1543.27 45.49 1543.29 45.43
							 1543.31 C45.37 1543.34 45.29 1543.35 45.19 1543.37 C45.09 1543.38 44.97 1543.39 44.81 1543.39 C44.66
							 1543.39 44.54 1543.38 44.44 1543.37 C44.34 1543.35 44.26 1543.34 44.2 1543.31 C44.14 1543.29 44.1 1543.27
							 44.07 1543.23 C44.05 1543.19 44.04 1543.16 44.04 1543.11 L44.04 1535.64 C44.04 1535.42 44.09 1535.25
							 44.2 1535.13 C44.32 1535.02 44.47 1534.96 44.65 1534.96 L45.72 1534.96 C45.91 1534.96 46.08 1534.97
							 46.22 1535.01 C46.35 1535.04 46.47 1535.09 46.57 1535.17 C46.67 1535.25 46.75 1535.34 46.82 1535.47
							 C46.89 1535.59 46.95 1535.74 46.99 1535.92 L48.74 1540.92 L48.76 1540.92 L50.57 1535.94 C50.62 1535.76
							 50.68 1535.6 50.74 1535.48 C50.81 1535.35 50.88 1535.25 50.97 1535.17 C51.05 1535.09 51.15 1535.04 51.27
							 1535.01 C51.39 1534.98 51.52 1534.96 51.68 1534.96 L52.78 1534.96 C52.89 1534.96 52.99 1534.97 53.07
							 1535 C53.15 1535.03 53.21 1535.08 53.27 1535.14 C53.32 1535.19 53.36 1535.26 53.38 1535.35 C53.41 1535.44
							 53.42 1535.53 53.42 1535.64 L53.42 1543.11 L53.43 1543.11 ZM63.58 1516.29 C63.58 1517.49 62.66 1518.45
							 61.51 1518.45 L49.65 1518.45 C48.49 1523.28 49.04 1523.87 57.06 1523.87 L57.06 1525.86 L47.72 1525.86
							 L40.91 1525.86 L32.15 1525.86 L32.15 1523.87 C39.35 1523.87 40.54 1523.28 39.41 1518.45 L27.7 1518.45
							 C26.55 1518.45 25.63 1517.49 25.63 1516.29 L25.63 1492.29 C25.63 1491.09 26.55 1490.11 27.7 1490.11
							 L61.51 1490.11 C62.66 1490.11 63.58 1491.09 63.58 1492.29 L63.58 1516.29 L63.58 1516.29 Z"
						class="st11"/>
			</g>
		</g>
		<g id="group1052-67" transform="translate(780.3,-1080)" v:mID="1052" v:groupContext="group" v:layerMember="0">
			<title>Virtual machine (opaque).1099</title>
			<g id="shape1053-68" v:mID="1053" v:groupContext="shape" v:layerMember="0" transform="translate(28.287,-32.3232)">
				<title>Sheet.1053</title>
				<path d="M0 1548 L32.63 1548 L32.63 1525.22 L0 1525.22 L0 1548 ZM23.5 1541.35 L17.36 1545.04 L17.36 1537.69 L23.5
							 1534 L23.5 1541.35 ZM16.8 1529.26 L22.94 1532.97 L16.84 1536.64 L10.68 1532.95 L16.8 1529.26 ZM10.09
							 1533.96 L16.23 1537.64 L16.23 1545.04 L10.09 1541.35 L10.09 1533.96 Z" class="st11"/>
			</g>
			<g id="shape1054-70" v:mID="1054" v:groupContext="shape" v:layerMember="0">
				<title>Sheet.1054</title>
				<path d="M82.59 1476 L3.81 1476 C1.72 1476 0 1477.79 0 1479.97 L0 1544.03 C0 1546.23 1.72 1548 3.81 1548 L82.59 1548
							 C84.7 1548 86.4 1546.23 86.4 1544.03 L86.4 1479.97 C86.4 1477.79 84.7 1476 82.59 1476 ZM42.92 1535.61
							 L40.51 1543.05 C40.49 1543.12 40.47 1543.18 40.43 1543.23 C40.4 1543.27 40.34 1543.31 40.27 1543.33
							 C40.2 1543.35 40.09 1543.37 39.97 1543.37 C39.84 1543.38 39.67 1543.39 39.46 1543.39 C39.3 1543.39 39.16
							 1543.38 39.04 1543.38 C38.92 1543.38 38.82 1543.37 38.73 1543.36 C38.65 1543.36 38.58 1543.34 38.53
							 1543.33 C38.48 1543.31 38.44 1543.29 38.4 1543.26 C38.36 1543.24 38.34 1543.2 38.32 1543.17 C38.3 1543.13
							 38.28 1543.09 38.27 1543.03 L35.87 1535.59 C35.82 1535.44 35.79 1535.31 35.78 1535.22 C35.77 1535.13
							 35.79 1535.06 35.84 1535.02 C35.89 1534.97 35.98 1534.94 36.1 1534.93 C36.23 1534.92 36.4 1534.92 36.63
							 1534.92 C36.82 1534.92 36.97 1534.92 37.08 1534.93 C37.18 1534.94 37.27 1534.95 37.32 1534.97 C37.38
							 1535 37.42 1535.03 37.45 1535.07 C37.47 1535.12 37.49 1535.17 37.51 1535.23 L39.47 1541.7 L39.48 1541.7
							 L41.4 1535.27 C41.42 1535.19 41.44 1535.13 41.46 1535.09 C41.49 1535.04 41.53 1535.01 41.59 1534.98
							 C41.65 1534.96 41.73 1534.94 41.85 1534.93 C41.96 1534.92 42.11 1534.92 42.31 1534.92 C42.5 1534.92
							 42.65 1534.92 42.75 1534.94 C42.86 1534.95 42.93 1534.98 42.97 1535.03 C43.01 1535.08 43.02 1535.15
							 43.01 1535.24 C43 1535.33 42.97 1535.45 42.92 1535.61 ZM53.43 1543.11 C53.43 1543.16 53.42 1543.2 53.39
							 1543.23 C53.37 1543.27 53.33 1543.29 53.27 1543.31 C53.21 1543.34 53.13 1543.35 53.03 1543.37 C52.93
							 1543.38 52.81 1543.39 52.65 1543.39 C52.5 1543.39 52.38 1543.38 52.28 1543.37 C52.18 1543.35 52.1 1543.34
							 52.04 1543.31 C51.98 1543.29 51.94 1543.27 51.92 1543.23 C51.89 1543.19 51.88 1543.16 51.88 1543.11
							 L51.88 1536.29 L51.87 1536.29 L49.53 1543.11 C49.52 1543.16 49.49 1543.21 49.45 1543.25 C49.41 1543.29
							 49.36 1543.31 49.3 1543.34 C49.23 1543.36 49.15 1543.37 49.05 1543.38 C48.95 1543.38 48.83 1543.39 48.69
							 1543.39 C48.55 1543.39 48.43 1543.38 48.33 1543.37 C48.23 1543.36 48.15 1543.34 48.08 1543.32 C48.02
							 1543.29 47.97 1543.27 47.93 1543.23 C47.89 1543.19 47.87 1543.16 47.85 1543.11 L45.6 1536.29 L45.59
							 1536.29 L45.59 1543.11 C45.59 1543.16 45.58 1543.2 45.56 1543.23 C45.53 1543.27 45.49 1543.29 45.43
							 1543.31 C45.37 1543.34 45.29 1543.35 45.19 1543.37 C45.09 1543.38 44.97 1543.39 44.81 1543.39 C44.66
							 1543.39 44.54 1543.38 44.44 1543.37 C44.34 1543.35 44.26 1543.34 44.2 1543.31 C44.14 1543.29 44.1 1543.27
							 44.07 1543.23 C44.05 1543.19 44.04 1543.16 44.04 1543.11 L44.04 1535.64 C44.04 1535.42 44.09 1535.25
							 44.2 1535.13 C44.32 1535.02 44.47 1534.96 44.65 1534.96 L45.72 1534.96 C45.91 1534.96 46.08 1534.97
							 46.22 1535.01 C46.35 1535.04 46.47 1535.09 46.57 1535.17 C46.67 1535.25 46.75 1535.34 46.82 1535.47
							 C46.89 1535.59 46.95 1535.74 46.99 1535.92 L48.74 1540.92 L48.76 1540.92 L50.57 1535.94 C50.62 1535.76
							 50.68 1535.6 50.74 1535.48 C50.81 1535.35 50.88 1535.25 50.97 1535.17 C51.05 1535.09 51.15 1535.04 51.27
							 1535.01 C51.39 1534.98 51.52 1534.96 51.68 1534.96 L52.78 1534.96 C52.89 1534.96 52.99 1534.97 53.07
							 1535 C53.15 1535.03 53.21 1535.08 53.27 1535.14 C53.32 1535.19 53.36 1535.26 53.38 1535.35 C53.41 1535.44
							 53.42 1535.53 53.42 1535.64 L53.42 1543.11 L53.43 1543.11 ZM63.58 1516.29 C63.58 1517.49 62.66 1518.45
							 61.51 1518.45 L49.65 1518.45 C48.49 1523.28 49.04 1523.87 57.06 1523.87 L57.06 1525.86 L47.72 1525.86
							 L40.91 1525.86 L32.15 1525.86 L32.15 1523.87 C39.35 1523.87 40.54 1523.28 39.41 1518.45 L27.7 1518.45
							 C26.55 1518.45 25.63 1517.49 25.63 1516.29 L25.63 1492.29 C25.63 1491.09 26.55 1490.11 27.7 1490.11
							 L61.51 1490.11 C62.66 1490.11 63.58 1491.09 63.58 1492.29 L63.58 1516.29 L63.58 1516.29 Z"
						class="st11"/>
			</g>
		</g>
		<g id="shape1055-72" v:mID="1055" v:groupContext="shape" v:layerMember="0" transform="translate(756,-1197)">
			<title>Dynamic connector.1055</title>
			<path d="M0 1548 L17.45 1476.75" class="st12"/>
		</g>
		<g id="shape1056-78" v:mID="1056" v:groupContext="shape" v:layerMember="0" transform="translate(756,-1188)">
			<title>Dynamic connector.1125</title>
			<path d="M0 1539 L9.8 1539" class="st12"/>
		</g>
		<g id="shape1057-83" v:mID="1057" v:groupContext="shape" v:layerMember="0" transform="translate(756,-1197)">
			<title>Dynamic connector.1057</title>
			<path d="M0 1548 L17.45 1619.25" class="st12"/>
		</g>
		<g id="group1058-88" transform="translate(683.079,-1314)" v:mID="1058" v:groupContext="group" v:layerMember="0">
			<title>Sheet.1058</title>
			<desc>NSG</desc>
			<g id="shape1059-89" v:mID="1059" v:groupContext="shape" v:layerMember="0">
				<title>Lock, protected.1135</title>
				<path d="M43.76 1511.37 L40.68 1511.37 L40.68 1505.7 C40.68 1493.7 33.06 1487.54 24.15 1487.54 L22.69 1487.54 C13.61
							 1487.54 6.16 1493.54 6.16 1505.7 L6.16 1511.37 L3.08 1511.37 C1.78 1511.37 0 1513.15 0 1514.45 L0 1544.92
							 C0 1546.22 1.78 1548 3.08 1548 L43.76 1548 C45.06 1548 46.84 1546.22 46.84 1544.92 L46.84 1514.45 C46.84
							 1513.15 45.06 1511.37 43.76 1511.37 ZM25.77 1529.36 L25.77 1542 L21.23 1542 L21.23 1529.36 C19.45 1528.55
							 18.15 1526.77 18.15 1524.66 C18.15 1521.74 20.58 1519.31 23.5 1519.31 C26.42 1519.31 28.85 1521.74 28.85
							 1524.66 C28.69 1526.61 27.55 1528.39 25.77 1529.36 ZM35.01 1511.37 L11.83 1511.37 L11.83 1505.7 C11.83
							 1498.08 15.88 1492.89 22.69 1492.89 L24.15 1492.89 C31.12 1492.89 35.01 1498.08 35.01 1505.7 L35.01
							 1511.37 Z" class="st14"/>
			</g>
			<g id="shape1060-91" v:mID="1060" v:groupContext="shape" v:layerMember="0" transform="translate(6.97432,-1.19204)">
				<title>Sheet.1060</title>
				<rect x="0" y="1516.3" width="32.8932" height="31.7012" class="st15"/>
			</g>
			<g id="shape1058-93" v:mID="1058" v:groupContext="groupContent" v:layerMember="0">
				<v:textBlock v:margins="rect(4,4,4,4)"/>
				<v:textRect cx="23.4209" cy="1530.64" width="46.85" height="34.7284"/>
				<text x="5.73" y="1536.04" class="st16" v:langID="1033"><v:paragraph v:horizAlign="1"/><v:tabList/>NSG</text>			</g>
		</g>
		<a
				xlink:href="https://ms.portal.azure.com/#resource/subscriptions/628dad04-b5d1-4f10-b3a4-dc61d88cf97c/resourceGroups/ha-nva-rg/providers/Microsoft.Network/publicIPAddresses/ha-nva-pip/overview">
			<g id="shape1177-95" v:mID="1177" v:groupContext="shape" v:layerMember="0" transform="translate(90.0443,-783)">
				<title>Sheet.1177</title>
				<desc>PIP</desc>
				<v:textBlock v:margins="rect(4,4,4,4)"/>
				<v:textRect cx="54" cy="1530" width="108" height="36"/>
				<rect x="0" y="1512" width="108" height="36" class="st17"/>
				<text x="41.52" y="1535.4" class="st4" v:langID="1033"><v:paragraph v:horizAlign="1"/><v:tabList/>PIP</text>			</g>
		</a>
		<a
				xlink:href="https://ms.portal.azure.com/#resource/subscriptions/628dad04-b5d1-4f10-b3a4-dc61d88cf97c/resourceGroups/ha-nva-rg/providers/Microsoft.Network/routeTables/ha-nva-udr/overview">
			<g id="shape1181-98" v:mID="1181" v:groupContext="shape" v:layerMember="0" transform="translate(688.5,-1080)">
				<title>Sheet.1181</title>
				<desc>UDR</desc>
				<v:textBlock v:margins="rect(4,4,4,4)"/>
				<v:textRect cx="36" cy="1521" width="72" height="54"/>
				<rect x="0" y="1494" width="72" height="54" class="st17"/>
				<text x="18.12" y="1526.4" class="st4" v:langID="1033"><v:paragraph v:horizAlign="1"/><v:tabList/>UDR</text>			</g>
		</a>
		<g id="shape1186-101" v:mID="1186" v:groupContext="shape" v:layerMember="0" transform="translate(558,-822.604)">
			<title>Dynamic connector.1116</title>
			<desc>Ingress traffic</desc>
			<v:textBlock v:margins="rect(4,4,4,4)"/>
			<v:textRect cx="169.578" cy="1539" width="119.85" height="29.6036"/>
			<path d="M0 1539.9 L85.14 1538.1" class="st18"/>
			<rect v:rectContext="textBkgnd" x="113.656" y="1528.2" width="106.91" height="21.5999" class="st19"/>
			<text x="113.66" y="1544.4" class="st8" v:langID="1033"><v:paragraph/><v:tabList/>Ingress traffic</text>		</g>
		<g id="shape1187-106" v:mID="1187" v:groupContext="shape" v:layerMember="0" transform="translate(558,-797.396)">
			<title>Dynamic connector.1117</title>
			<desc>Egress traffic</desc>
			<v:textBlock v:margins="rect(4,4,4,4)"/>
			<v:textRect cx="164.987" cy="1539" width="113.98" height="29.6036"/>
			<path d="M0 1539.9 L85.14 1538.1" class="st20"/>
			<rect v:rectContext="textBkgnd" x="112" y="1528.2" width="101.039" height="21.5999" class="st19"/>
			<text x="112" y="1544.4" class="st8" v:langID="1033"><v:paragraph/><v:tabList/>Egress traffic</text>		</g>
		<g id="shape1188-111" v:mID="1188" v:groupContext="shape" v:layerMember="0" transform="translate(328.412,-1062)">
			<title>Sheet.1188</title>
			<desc>DMZ - internal 10.0.0.96/27</desc>
			<v:textBlock v:margins="rect(4,4,4,4)" v:verticalAlign="0"/>
			<v:textRect cx="150.794" cy="1200" width="301.59" height="48"/>
			<path d="M0 1548 L301.59 1548 L301.59 1224 L0 1224 L0 1548 Z" class="st6"/>
			<text x="4" y="1196.2" class="st8" v:langID="1033"><v:paragraph/><v:tabList/>DMZ - internal<v:newlineChar/><tspan x="4"
						dy="1.2em" class="st5">10.0.0.96/27</tspan></text>		</g>
		<g id="group1014-117" transform="translate(336.579,-1314)" v:mID="1014" v:groupContext="group" v:layerMember="0">
			<title>Sheet.1014</title>
			<desc>NSG</desc>
			<g id="shape1015-118" v:mID="1015" v:groupContext="shape" v:layerMember="0">
				<title>Lock, protected.1135</title>
				<path d="M43.76 1511.37 L40.68 1511.37 L40.68 1505.7 C40.68 1493.7 33.06 1487.54 24.15 1487.54 L22.69 1487.54 C13.61
							 1487.54 6.16 1493.54 6.16 1505.7 L6.16 1511.37 L3.08 1511.37 C1.78 1511.37 0 1513.15 0 1514.45 L0 1544.92
							 C0 1546.22 1.78 1548 3.08 1548 L43.76 1548 C45.06 1548 46.84 1546.22 46.84 1544.92 L46.84 1514.45 C46.84
							 1513.15 45.06 1511.37 43.76 1511.37 ZM25.77 1529.36 L25.77 1542 L21.23 1542 L21.23 1529.36 C19.45 1528.55
							 18.15 1526.77 18.15 1524.66 C18.15 1521.74 20.58 1519.31 23.5 1519.31 C26.42 1519.31 28.85 1521.74 28.85
							 1524.66 C28.69 1526.61 27.55 1528.39 25.77 1529.36 ZM35.01 1511.37 L11.83 1511.37 L11.83 1505.7 C11.83
							 1498.08 15.88 1492.89 22.69 1492.89 L24.15 1492.89 C31.12 1492.89 35.01 1498.08 35.01 1505.7 L35.01
							 1511.37 Z" class="st14"/>
			</g>
			<g id="shape1016-120" v:mID="1016" v:groupContext="shape" v:layerMember="0" transform="translate(6.97432,-1.19204)">
				<title>Sheet.1016</title>
				<rect x="0" y="1516.3" width="32.8932" height="31.7012" class="st15"/>
			</g>
			<g id="shape1014-122" v:mID="1014" v:groupContext="groupContent" v:layerMember="0">
				<v:textBlock v:margins="rect(4,4,4,4)"/>
				<v:textRect cx="23.4209" cy="1530.64" width="46.85" height="34.7284"/>
				<text x="5.73" y="1536.04" class="st16" v:langID="1033"><v:paragraph v:horizAlign="1"/><v:tabList/>NSG</text>			</g>
		</g>
		<g id="group1189-124" transform="translate(83.6582,-1314)" v:mID="1189" v:groupContext="group" v:layerMember="0">
			<title>Sheet.1189</title>
			<desc>NSG</desc>
			<g id="shape1190-125" v:mID="1190" v:groupContext="shape" v:layerMember="0">
				<title>Lock, protected.1135</title>
				<path d="M43.76 1511.37 L40.68 1511.37 L40.68 1505.7 C40.68 1493.7 33.06 1487.54 24.15 1487.54 L22.69 1487.54 C13.61
							 1487.54 6.16 1493.54 6.16 1505.7 L6.16 1511.37 L3.08 1511.37 C1.78 1511.37 0 1513.15 0 1514.45 L0 1544.92
							 C0 1546.22 1.78 1548 3.08 1548 L43.76 1548 C45.06 1548 46.84 1546.22 46.84 1544.92 L46.84 1514.45 C46.84
							 1513.15 45.06 1511.37 43.76 1511.37 ZM25.77 1529.36 L25.77 1542 L21.23 1542 L21.23 1529.36 C19.45 1528.55
							 18.15 1526.77 18.15 1524.66 C18.15 1521.74 20.58 1519.31 23.5 1519.31 C26.42 1519.31 28.85 1521.74 28.85
							 1524.66 C28.69 1526.61 27.55 1528.39 25.77 1529.36 ZM35.01 1511.37 L11.83 1511.37 L11.83 1505.7 C11.83
							 1498.08 15.88 1492.89 22.69 1492.89 L24.15 1492.89 C31.12 1492.89 35.01 1498.08 35.01 1505.7 L35.01
							 1511.37 Z" class="st14"/>
			</g>
			<g id="shape1191-127" v:mID="1191" v:groupContext="shape" v:layerMember="0" transform="translate(6.97432,-1.19204)">
				<title>Sheet.1191</title>
				<rect x="0" y="1516.3" width="32.8932" height="31.7012" class="st15"/>
			</g>
			<g id="shape1189-129" v:mID="1189" v:groupContext="groupContent" v:layerMember="0">
				<v:textBlock v:margins="rect(4,4,4,4)"/>
				<v:textRect cx="23.4209" cy="1530.64" width="46.85" height="34.7284"/>
				<text x="5.73" y="1536.04" class="st16" v:langID="1033"><v:paragraph v:horizAlign="1"/><v:tabList/>NSG</text>			</g>
		</g>
		<g id="shape1182-131" v:mID="1182" v:groupContext="shape" v:layerMember="0" transform="translate(688.5,-1107)">
			<title>Dynamic connector.1110</title>
			<path d="M0 1548 L-254.59 1479.86" class="st21"/>
		</g>
		<g id="shape1180-137" v:mID="1180" v:groupContext="shape" v:layerMember="0" transform="translate(419.377,-1182.63)">
			<title>Dynamic connector.1180</title>
			<path d="M0 1544.37 L249.6 1534.24" class="st23"/>
		</g>
		<g id="shape1192-143" v:mID="1192" v:groupContext="shape" v:layerMember="0" transform="translate(120.623,-1167.3)">
			<title>Sheet.1192</title>
			<desc>NIC</desc>
			<v:textBlock v:margins="rect(4,4,4,4)"/>
			<v:textRect cx="23.4209" cy="1530" width="46.85" height="36"/>
			<rect x="0" y="1512" width="46.8419" height="36" class="st17"/>
			<text x="8.72" y="1535.4" class="st4" v:langID="1033"><v:paragraph v:horizAlign="1"/><v:tabList/>NIC</text>		</g>
		<g id="shape1193-146" v:mID="1193" v:groupContext="shape" v:layerMember="0" transform="translate(120.623,-1258.2)">
			<title>Sheet.1193</title>
			<desc>NIC</desc>
			<v:textBlock v:margins="rect(4,4,4,4)"/>
			<v:textRect cx="23.4209" cy="1530" width="46.85" height="36"/>
			<rect x="0" y="1512" width="46.8419" height="36" class="st17"/>
			<text x="8.72" y="1535.4" class="st4" v:langID="1033"><v:paragraph v:horizAlign="1"/><v:tabList/>NIC</text>		</g>
		<g id="shape1194-149" v:mID="1194" v:groupContext="shape" v:layerMember="0" transform="translate(372.535,-1258.2)">
			<title>Sheet.1194</title>
			<desc>NIC</desc>
			<v:textBlock v:margins="rect(4,4,4,4)"/>
			<v:textRect cx="23.4209" cy="1530" width="46.85" height="36"/>
			<rect x="0" y="1512" width="46.8419" height="36" class="st17"/>
			<text x="8.72" y="1535.4" class="st4" v:langID="1033"><v:paragraph v:horizAlign="1"/><v:tabList/>NIC</text>		</g>
		<g id="shape1195-152" v:mID="1195" v:groupContext="shape" v:layerMember="0" transform="translate(372.535,-1167.3)">
			<title>Sheet.1195</title>
			<desc>NIC</desc>
			<v:textBlock v:margins="rect(4,4,4,4)"/>
			<v:textRect cx="23.4209" cy="1530" width="46.85" height="36"/>
			<rect x="0" y="1512" width="46.8419" height="36" class="st17"/>
			<text x="8.72" y="1535.4" class="st4" v:langID="1033"><v:paragraph v:horizAlign="1"/><v:tabList/>NIC</text>		</g>
		<g id="shape1196-155" v:mID="1196" v:groupContext="shape" v:layerMember="0" transform="translate(167.465,-1267.2)">
			<title>Dynamic connector.1126</title>
			<path d="M0 1539 L56.87 1539" class="st25"/>
		</g>
		<g id="shape1197-158" v:mID="1197" v:groupContext="shape" v:layerMember="0" transform="translate(167.465,-1177.39)">
			<title>Dynamic connector.1197</title>
			<path d="M0 1539.62 L60.53 1538.38" class="st25"/>
		</g>
		<g id="shape1198-161" v:mID="1198" v:groupContext="shape" v:layerMember="0" transform="translate(310.737,-1267.2)">
			<title>Dynamic connector.1198</title>
			<path d="M0 1539 L61.8 1539" class="st25"/>
		</g>
		<g id="shape1199-164" v:mID="1199" v:groupContext="shape" v:layerMember="0" transform="translate(310.737,-1176.3)">
			<title>Dynamic connector.1199</title>
			<path d="M0 1539 L61.8 1539" class="st25"/>
		</g>
		<g id="shape1203-167" v:mID="1203" v:groupContext="shape" transform="translate(490.5,-1237.5)">
			<title>Container Service (nc).1203</title>
			<desc>ZooKeeper nodes</desc>
			<v:textBlock v:margins="rect(0,0,0,0)"/>
			<v:textRect cx="54" cy="1570.5" width="108" height="108"/>
			<path d="M91.58 1475.9 L91.58 1511.81 L108 1503.34 L108 1483.78 L91.58 1475.9 ZM84.89 1506.84 L83.81 1506.26 L83.81 1481.45
						 L84.89 1481.16 L85.97 1480.57 L87.26 1479.99 L87.26 1507.72 L85.97 1507.14 L84.89 1506.84 ZM81 1505.09 L80.14
						 1504.8 L80.14 1482.91 L82.73 1482.03 L82.73 1505.97 L81.86 1505.68 L81 1505.09 ZM77.76 1503.63 L77.11 1503.34
						 L77.11 1483.78 L79.06 1482.91 L79.06 1504.22 L77.76 1503.63 ZM76.46 1481.74 L76.46 1505.38 L88.78 1511.81
						 L88.78 1475.9 L76.46 1481.74 ZM71.5 1440 L71.5 1476.19 L88.13 1467.44 L88.13 1447.88 L71.5 1440 ZM71.5 1511.81
						 L71.5 1548 L88.13 1539.24 L88.13 1519.69 L71.5 1511.81 ZM65.02 1470.94 L63.94 1470.36 L63.94 1445.55 L65.02
						 1445.25 L66.1 1444.67 L67.39 1444.09 L67.39 1471.82 L66.1 1471.23 L65.02 1470.94 ZM61.13 1469.19 L60.26
						 1468.9 L60.26 1447.01 L62.86 1446.13 L62.86 1470.06 L61.99 1469.77 L61.13 1469.19 ZM57.89 1468.02 L57.24
						 1467.73 L57.24 1448.17 L59.18 1447.3 L59.18 1468.61 L57.89 1468.02 ZM56.59 1446.13 L56.59 1469.77 L68.9
						 1476.19 L68.9 1440.29 L56.59 1446.13 ZM65.02 1542.75 L63.94 1542.16 L63.94 1517.35 L65.02 1517.06 L66.1
						 1516.48 L67.39 1515.89 L67.39 1543.62 L66.1 1543.04 L65.02 1542.75 ZM61.13 1540.99 L60.26 1540.7 L60.26
						 1518.81 L62.86 1517.94 L62.86 1541.87 L61.99 1541.58 L61.13 1540.99 ZM57.89 1539.83 L57.24 1539.54 L57.24
						 1519.98 L59.18 1519.1 L59.18 1540.41 L57.89 1539.83 ZM56.59 1517.94 L56.59 1541.58 L68.9 1548 L68.9 1512.1
						 L56.59 1517.94 ZM53.57 1475.9 L53.57 1511.81 L69.98 1503.34 L69.98 1483.78 L53.57 1475.9 ZM46.87 1506.84
						 L45.79 1506.26 L45.79 1481.45 L46.87 1481.16 L47.95 1480.57 L49.25 1479.99 L49.25 1507.72 L47.95 1507.14
						 L46.87 1506.84 ZM42.98 1505.09 L42.12 1504.8 L42.12 1482.91 L44.71 1482.03 L44.71 1505.97 L43.85 1505.68
						 L42.98 1505.09 ZM39.74 1503.63 L39.1 1503.34 L39.1 1483.78 L41.04 1482.91 L41.04 1504.22 L39.74 1503.63
						 ZM38.45 1481.74 L38.45 1505.38 L50.76 1511.81 L50.76 1475.9 L38.45 1481.74 ZM32.83 1440 L32.83 1476.19 L49.46
						 1467.44 L49.46 1447.88 L32.83 1440 ZM32.83 1511.81 L32.83 1548 L49.46 1539.24 L49.46 1519.69 L32.83 1511.81
						 ZM26.35 1470.94 L25.27 1470.36 L25.27 1445.55 L26.35 1445.25 L27.43 1444.67 L28.73 1444.09 L28.73 1471.82
						 L27.43 1471.23 L26.35 1470.94 ZM22.46 1469.19 L21.6 1468.9 L21.6 1447.01 L24.19 1446.13 L24.19 1470.06 L23.33
						 1469.77 L22.46 1469.19 ZM19.22 1468.02 L18.58 1467.73 L18.58 1448.17 L20.52 1447.3 L20.52 1468.61 L19.22
						 1468.02 ZM17.93 1446.13 L17.93 1469.77 L30.24 1476.19 L30.24 1440.29 L17.93 1446.13 ZM26.35 1542.75 L25.27
						 1542.16 L25.27 1517.35 L26.35 1517.06 L27.43 1516.48 L28.73 1515.89 L28.73 1543.62 L27.43 1543.04 L26.35
						 1542.75 ZM22.46 1540.99 L21.6 1540.7 L21.6 1518.81 L24.19 1517.94 L24.19 1541.87 L23.33 1541.58 L22.46 1540.99
						 ZM19.22 1539.83 L18.58 1539.54 L18.58 1519.98 L20.52 1519.1 L20.52 1540.41 L19.22 1539.83 ZM17.93 1517.94
						 L17.93 1541.58 L30.24 1548 L30.24 1512.1 L17.93 1517.94 ZM15.12 1475.9 L15.12 1511.81 L31.54 1503.34 L31.54
						 1483.78 L15.12 1475.9 ZM8.42 1506.84 L7.34 1506.26 L7.34 1481.45 L8.42 1481.16 L9.5 1480.57 L10.8 1479.99
						 L10.8 1507.72 L9.5 1507.14 L8.42 1506.84 ZM4.54 1505.09 L3.67 1504.8 L3.67 1482.91 L6.26 1482.03 L6.26 1505.97
						 L5.4 1505.68 L4.54 1505.09 ZM1.3 1503.63 L0.65 1503.34 L0.65 1483.78 L2.59 1482.91 L2.59 1504.22 L1.3 1503.63
						 ZM0 1481.74 L0 1505.38 L12.31 1511.81 L12.31 1475.9 L0 1481.74 Z" class="st11"/>
			<text x="10.56" y="1565.1" class="st4" v:langID="1033"><v:paragraph v:horizAlign="1"/><v:tabList/>ZooKeeper<v:newlineChar/><tspan
						x="29.81" dy="1.2em" class="st5">nodes</tspan></text>		</g>
		<g id="shape1204-171" v:mID="1204" v:groupContext="shape" v:layerMember="0" transform="translate(508.428,-1265.71)">
			<title>Dynamic connector.1204</title>
			<path d="M0 1548 L-76.82 1602.92" class="st26"/>
		</g>
		<g id="shape1205-177" v:mID="1205" v:groupContext="shape" v:layerMember="0" transform="translate(558,-774.896)">
			<title>Dynamic connector.1205</title>
			<desc>Probing</desc>
			<v:textBlock v:margins="rect(4,4,4,4)"/>
			<v:textRect cx="153" cy="1539" width="90" height="29.6036"/>
			<path d="M0 1539.9 L85.14 1538.1" class="st28"/>
			<rect v:rectContext="textBkgnd" x="112" y="1528.2" width="62.6133" height="21.5999" class="st19"/>
			<text x="112" y="1544.4" class="st8" v:langID="1033"><v:paragraph/><v:tabList/>Probing</text>		</g>
		<g id="shape1143-182" v:mID="1143" v:groupContext="shape" v:layerMember="0" transform="translate(126.044,-819)">
			<title>Dynamic connector.1074</title>
			<path d="M9 1548 L9 1214.29" class="st23"/>
		</g>
		<g id="shape1183-187" v:mID="1183" v:groupContext="shape" v:layerMember="0" transform="translate(144.044,-1166.62)">
			<title>Dynamic connector.1183</title>
			<path d="M9 1548 L9 1880.58" class="st21"/>
		</g>
		<g id="shape1228-192" v:mID="1228" v:groupContext="shape" v:layerMember="0" transform="translate(328.412,-886.5)">
			<title>Sheet.1228</title>
			<desc>Management 10.0.0.128/25</desc>
			<v:textBlock v:margins="rect(4,4,4,4)" v:verticalAlign="0"/>
			<v:textRect cx="150.794" cy="1390.33" width="301.59" height="17.6667"/>
			<path d="M0 1548 L301.59 1548 L301.59 1428.75 L0 1428.75 L0 1548 Z" class="st6"/>
			<text x="4" y="1401.7" class="st8" v:langID="1033"><v:paragraph/><v:tabList/>Management <v:newlineChar/><tspan x="4"
						dy="1.2em" class="st5">10.0.0.128/25</tspan></text>		</g>
		<g id="group1232-198" transform="translate(436.006,-900)" v:mID="1232" v:groupContext="group" v:layerMember="0">
			<title>Computer.1232</title>
			<desc>Jumpbox</desc>
			<g id="shape1233-199" v:mID="1233" v:groupContext="shape" v:layerMember="0" transform="translate(13.2949,-4.54747E-13)">
				<title>Sheet.1233</title>
				<path d="M41.07 1530 L39.01 1530 L18.64 1530 L17.58 1530 C20.41 1540.79 16.61 1542.34 0 1542.34 L0 1548 L21.13 1548
							 L36.55 1548 L56.49 1548 L56.49 1542.34 C39.87 1542.34 38.24 1540.8 41.07 1530 Z" class="st10"/>
			</g>
			<g id="shape1234-201" v:mID="1234" v:groupContext="shape" v:layerMember="0" transform="translate(0,-17.9984)">
				<title>Sheet.1234</title>
				<path d="M81.18 1479.6 L4.69 1479.6 C2.09 1479.6 0 1482.12 0 1484.93 L0 1542.71 C0 1545.51 2.09 1548 4.69 1548 L81.18
							 1548 C83.77 1548 86.4 1545.51 86.4 1542.71 L86.4 1484.93 C86.4 1482.11 83.77 1479.6 81.18 1479.6 ZM79.76
							 1486.8 L79.76 1540.8 L6.65 1540.8 L6.65 1486.8 L79.96 1486.68 L79.76 1486.8 Z" class="st10"/>
			</g>
			<g id="shape1232-203" v:mID="1232" v:groupContext="groupContent" v:layerMember="0">
				<v:textBlock v:margins="rect(0,0,0,0)"/>
				<v:textRect cx="43.2" cy="1497.6" width="86.4" height="72"/>
				<text x="7.16" y="1503" class="st8" v:langID="1033"><v:paragraph v:horizAlign="1"/><v:tabList/>Jumpbox</text>			</g>
		</g>
		<g id="shape1236-205" v:mID="1236" v:groupContext="shape" v:layerMember="0" transform="translate(372.579,-925.2)">
			<title>Sheet.1236</title>
			<desc>NIC</desc>
			<v:textBlock v:margins="rect(4,4,4,4)"/>
			<v:textRect cx="23.4209" cy="1530" width="46.85" height="36"/>
			<rect x="0" y="1512" width="46.8419" height="36" class="st17"/>
			<text x="8.72" y="1535.4" class="st4" v:langID="1033"><v:paragraph v:horizAlign="1"/><v:tabList/>NIC</text>		</g>
		<g id="shape1237-208" v:mID="1237" v:groupContext="shape" v:layerMember="0" transform="translate(418.713,-934.2)">
			<title>Dynamic connector.1237</title>
			<path d="M0.71 1539 L17.29 1539" class="st25"/>
		</g>
		<a
				xlink:href="https://ms.portal.azure.com/#resource/subscriptions/3b518fac-e5c8-4f59-8ed5-d70b626f8e10/resourceGroups/ha-nva-test-rg/providers/Microsoft.Network/routeTables/ha-nva-test-udr/overview">
			<g id="shape1238-211" v:mID="1238" v:groupContext="shape" v:layerMember="0" transform="translate(538.991,-916.2)">
				<title>Sheet.1238</title>
				<desc>UDR</desc>
				<v:textBlock v:margins="rect(4,4,4,4)"/>
				<v:textRect cx="36" cy="1521" width="72" height="54"/>
				<rect x="0" y="1494" width="72" height="54" class="st17"/>
				<text x="18.12" y="1526.4" class="st4" v:langID="1033"><v:paragraph v:horizAlign="1"/><v:tabList/>UDR</text>			</g>
		</a>
		<g id="shape1239-214" v:mID="1239" v:groupContext="shape" v:layerMember="0" transform="translate(574.657,-970.2)">
			<title>Dynamic connector.1239</title>
			<path d="M0 1548 L-154.14 1362.47" class="st21"/>
		</g>
		<a xlink:href="ssh://52.183.67.247">
			<g id="shape1240-219" v:mID="1240" v:groupContext="shape" v:layerMember="0" transform="translate(342,-783)">
				<title>Sheet.1240</title>
				<desc>PIP</desc>
				<v:textBlock v:margins="rect(4,4,4,4)"/>
				<v:textRect cx="54" cy="1530" width="108" height="36"/>
				<rect x="0" y="1512" width="108" height="36" class="st17"/>
				<text x="41.52" y="1535.4" class="st4" v:langID="1033"><v:paragraph v:horizAlign="1"/><v:tabList/>PIP</text>			</g>
		</a>
		<g id="shape1241-222" v:mID="1241" v:groupContext="shape" v:layerMember="0" transform="translate(395.215,-819)">
			<title>Dynamic connector.1241</title>
			<path d="M-8.22 1548 L-9.56 1457.29" class="st23"/>
		</g>
		<g id="shape1242-227" v:mID="1242" v:groupContext="shape" v:layerMember="0" transform="translate(396,-925.875)">
			<title>Dynamic connector.1242</title>
			<path d="M9 1548 L9 1639.83" class="st21"/>
		</g>
		<a xlink:href="http://52.183.71.165">
			<g id="group1243-232" transform="translate(234,-765)" v:mID="1243" v:groupContext="group" v:layerMember="0">
				<title>Web.1266</title>
				<desc>Internet clients</desc>
				<g id="shape1244-233" v:mID="1244" v:groupContext="shape" v:layerMember="0">
					<title>Sheet.1244</title>
					<path d="M36 1481.02 C53.08 1481.02 66.98 1494.92 66.98 1512 C66.98 1529.08 53.08 1542.98 36 1542.98 C18.92 1542.98
								 5.02 1529.08 5.02 1512 C5.02 1494.92 18.92 1481.02 36 1481.02 ZM36 1476 C16.12 1476 0 1492.12 0
								 1512 C0 1531.88 16.12 1548 36 1548 C55.88 1548 72 1531.88 72 1512 C72 1492.12 55.88 1476 36 1476
								 Z" class="st29"/>
				</g>
				<g id="shape1245-235" v:mID="1245" v:groupContext="shape" v:layerMember="0" transform="translate(10.0482,-11.2136)">
					<title>Sheet.1245</title>
					<path d="M51.26 1545 C50.36 1546.06 49.39 1547.06 48.37 1548 C42.64 1543.06 34.58 1539.96 25.63 1539.96 C16.68
								 1539.96 8.62 1543.06 2.89 1548 C1.88 1547.06 0.9 1546.06 0 1545 C6.48 1539.32 15.56 1535.77 25.63
								 1535.77 C35.7 1535.77 44.78 1539.32 51.26 1545 Z" class="st29"/>
				</g>
				<g id="shape1246-237" v:mID="1246" v:groupContext="shape" v:layerMember="0" transform="translate(10.6945,-48.5581)">
					<title>Sheet.1246</title>
					<path d="M51.26 1538.78 C50.36 1537.71 49.39 1536.72 48.37 1535.77 C42.64 1540.71 34.58 1543.81 25.63 1543.81
								 C16.68 1543.81 8.62 1540.71 2.9 1535.77 C1.87 1536.72 0.9 1537.71 0 1538.78 C6.48 1544.45 15.56
								 1548 25.63 1548 C35.7 1548 44.78 1544.45 51.26 1538.78 Z" class="st29"/>
				</g>
				<g id="shape1247-239" v:mID="1247" v:groupContext="shape" v:layerMember="0" transform="translate(1.67442,-33.4884)">
					<title>Sheet.1247</title>
					<rect x="0" y="1542.98" width="66.9767" height="5.02326" class="st29"/>
				</g>
				<g id="shape1248-241" v:mID="1248" v:groupContext="shape" v:layerMember="0" transform="translate(33.4884,-1.41321)">
					<title>Sheet.1248</title>
					<rect x="0" y="1479.35" width="5.02326" height="68.6512" class="st29"/>
				</g>
				<g id="shape1249-243" v:mID="1249" v:groupContext="shape" v:layerMember="0" transform="translate(12.1395,-2.09302)">
					<title>Sheet.1249</title>
					<path d="M23.86 1548 C10.7 1548 0 1532.79 0 1514.09 C0 1495.39 10.7 1480.19 23.86 1480.19 C37.02 1480.19 47.72
								 1495.39 47.72 1514.09 C47.72 1532.79 37.02 1548 23.86 1548 ZM23.86 1484.37 C13.01 1484.37 4.19 1497.71
								 4.19 1514.09 C4.19 1530.48 13.01 1543.81 23.86 1543.81 C34.71 1543.81 43.53 1530.48 43.53 1514.09
								 C43.53 1497.71 34.71 1484.37 23.86 1484.37 Z" class="st29"/>
				</g>
				<g id="shape1243-245" v:mID="1243" v:groupContext="groupContent" v:layerMember="0">
					<v:textBlock v:margins="rect(0,0,0,0)" v:verticalAlign="0"/>
					<v:textRect cx="35.953" cy="1592.73" width="160.75" height="70.3256"/>
					<text x="-22.92" y="1573.77" class="st30" v:langID="1033"><v:paragraph v:horizAlign="1"/><v:tabList/>Internet clients</text>				</g>
			</g>
		</a>
		<g id="shape1250-247" v:mID="1250" v:groupContext="shape" v:layerMember="0" transform="translate(234,-792)">
			<title>Dynamic connector.1250</title>
			<path d="M0 1539 L-20.92 1539" class="st23"/>
		</g>
	</g>
</svg>
